<?xml version="1.0" encoding="UTF-8"?>
<svg xmlns="http://www.w3.org/2000/svg" xmlns:xlink="http://www.w3.org/1999/xlink" width="504pt" height="504pt" viewBox="0 0 504 504" version="1.1">
<g id="surface6">
<rect x="0" y="0" width="504" height="504" style="fill:rgb(100%,100%,100%);fill-opacity:1;stroke:none;"/>
<path style="fill:none;stroke-width:2.25;stroke-linecap:round;stroke-linejoin:round;stroke:rgb(74.509804%,74.509804%,74.509804%);stroke-opacity:1;stroke-miterlimit:10;" d="M 154.199219 347 L 186.597656 347 L 186.597656 314.601563 L 154.199219 314.601563 Z M 154.199219 347 "/>
<path style="fill:none;stroke-width:2.25;stroke-linecap:round;stroke-linejoin:round;stroke:rgb(74.509804%,74.509804%,74.509804%);stroke-opacity:1;stroke-miterlimit:10;" d="M 186.601563 244.800781 C 186.601563 253.746094 179.347656 261 170.398438 261 C 161.453125 261 154.199219 253.746094 154.199219 244.800781 C 154.199219 235.851563 161.453125 228.601563 170.398438 228.601563 C 179.347656 228.601563 186.601563 235.851563 186.601563 244.800781 "/>
<path style="fill:none;stroke-width:2.25;stroke-linecap:round;stroke-linejoin:round;stroke:rgb(74.509804%,74.509804%,74.509804%);stroke-opacity:1;stroke-miterlimit:10;" d="M 170.398438 133.605469 L 192.21875 171.394531 L 148.582031 171.394531 L 170.398438 133.605469 "/>
<path style=" stroke:none;fill-rule:nonzero;fill:rgb(27.45098%,50.980392%,70.588235%);fill-opacity:1;" d="M 250.199219 347 L 282.601563 347 L 282.601563 314.601563 L 250.199219 314.601563 Z M 250.199219 347 "/>
<path style=" stroke:none;fill-rule:nonzero;fill:rgb(100%,38.823529%,27.843137%);fill-opacity:1;" d="M 282.601563 244.800781 C 282.601563 253.746094 275.347656 261 266.398438 261 C 257.453125 261 250.199219 253.746094 250.199219 244.800781 C 250.199219 235.851563 257.453125 228.601563 266.398438 228.601563 C 275.347656 228.601563 282.601563 235.851563 282.601563 244.800781 "/>
<path style=" stroke:none;fill-rule:nonzero;fill:rgb(30.588235%,93.333333%,58.039216%);fill-opacity:1;" d="M 266.398438 133.605469 L 288.21875 171.394531 L 244.582031 171.394531 Z M 266.398438 133.605469 "/>
<path style="fill-rule:nonzero;fill:rgb(27.45098%,50.980392%,70.588235%);fill-opacity:1;stroke-width:2.25;stroke-linecap:round;stroke-linejoin:round;stroke:rgb(0%,0%,0%);stroke-opacity:1;stroke-miterlimit:10;" d="M 348.042969 345.15625 L 376.757813 345.15625 L 376.757813 316.441406 L 348.042969 316.441406 Z M 348.042969 345.15625 "/>
<path style="fill-rule:nonzero;fill:rgb(100%,38.823529%,27.843137%);fill-opacity:1;stroke-width:2.25;stroke-linecap:round;stroke-linejoin:round;stroke:rgb(0%,0%,0%);stroke-opacity:1;stroke-miterlimit:10;" d="M 378.601563 244.800781 C 378.601563 253.746094 371.347656 261 362.398438 261 C 353.453125 261 346.199219 253.746094 346.199219 244.800781 C 346.199219 235.851563 353.453125 228.601563 362.398438 228.601563 C 371.347656 228.601563 378.601563 235.851563 378.601563 244.800781 "/>
<path style="fill-rule:nonzero;fill:rgb(30.588235%,93.333333%,58.039216%);fill-opacity:1;stroke-width:2.25;stroke-linecap:round;stroke-linejoin:round;stroke:rgb(0%,0%,0%);stroke-opacity:1;stroke-miterlimit:10;" d="M 362.398438 133.605469 L 384.21875 171.394531 L 340.582031 171.394531 Z M 362.398438 133.605469 "/>
</g>
</svg>
